<?xml version="1.0" encoding="utf-8"?>
<svg version="1.1" xmlns:xlink="http://www.w3.org/1999/xlink" width="12px" height="12px" viewBox="218 371  12 12" xmlns="http://www.w3.org/2000/svg">
  <path d="M 224 371  C 227.36 371  230 373.64  230 377  C 230 380.36  227.36 383  224 383  C 220.64 383  218 380.36  218 377  C 218 373.64  220.64 371  224 371  Z " fill-rule="nonzero" fill="#ffffff" stroke="none" />
  <path d="M 224 371.5  C 227.08 371.5  229.5 373.92  229.5 377  C 229.5 380.08  227.08 382.5  224 382.5  C 220.92 382.5  218.5 380.08  218.5 377  C 218.5 373.92  220.92 371.5  224 371.5  Z " stroke-width="1" stroke="#797979" fill="none" />
  <path d="M 224 380  C 222.32 380  221 378.68  221 377  C 221 375.32  222.32 374  224 374  C 225.68 374  227 375.32  227 377  C 227 378.68  225.68 380  224 380  " fill-rule="nonzero" fill="#797979" stroke="none" />
</svg>