<?xml version="1.0" encoding="utf-8"?>
<svg version="1.1" xmlns:xlink="http://www.w3.org/1999/xlink" width="12px" height="12px" viewBox="290 417  12 12" xmlns="http://www.w3.org/2000/svg">
  <path d="M 296 417  C 299.36 417  302 419.64  302 423  C 302 426.36  299.36 429  296 429  C 292.64 429  290 426.36  290 423  C 290 419.64  292.64 417  296 417  Z " fill-rule="nonzero" fill="#ffffff" stroke="none" />
  <path d="M 296 417.5  C 299.08 417.5  301.5 419.92  301.5 423  C 301.5 426.08  299.08 428.5  296 428.5  C 292.92 428.5  290.5 426.08  290.5 423  C 290.5 419.92  292.92 417.5  296 417.5  Z " stroke-width="1" stroke="#797979" fill="none" />
  <path d="M 296 426  C 294.32 426  293 424.68  293 423  C 293 421.32  294.32 420  296 420  C 297.68 420  299 421.32  299 423  C 299 424.68  297.68 426  296 426  " fill-rule="nonzero" fill="#797979" stroke="none" />
</svg>