<?xml version="1.0" encoding="utf-8"?>
<svg version="1.1" xmlns:xlink="http://www.w3.org/1999/xlink" width="12px" height="12px" viewBox="290 371  12 12" xmlns="http://www.w3.org/2000/svg">
  <path d="M 296 371  C 299.36 371  302 373.64  302 377  C 302 380.36  299.36 383  296 383  C 292.64 383  290 380.36  290 377  C 290 373.64  292.64 371  296 371  Z " fill-rule="nonzero" fill="#ffffff" stroke="none" />
  <path d="M 296 371.5  C 299.08 371.5  301.5 373.92  301.5 377  C 301.5 380.08  299.08 382.5  296 382.5  C 292.92 382.5  290.5 380.08  290.5 377  C 290.5 373.92  292.92 371.5  296 371.5  Z " stroke-width="1" stroke="#797979" fill="none" />
  <path d="M 296 380  C 294.32 380  293 378.68  293 377  C 293 375.32  294.32 374  296 374  C 297.68 374  299 375.32  299 377  C 299 378.68  297.68 380  296 380  " fill-rule="nonzero" fill="#797979" stroke="none" />
</svg>