<?xml version="1.0" encoding="utf-8"?>
<svg version="1.1" xmlns:xlink="http://www.w3.org/1999/xlink" width="12px" height="12px" viewBox="218 417  12 12" xmlns="http://www.w3.org/2000/svg">
  <path d="M 224 417  C 227.36 417  230 419.64  230 423  C 230 426.36  227.36 429  224 429  C 220.64 429  218 426.36  218 423  C 218 419.64  220.64 417  224 417  Z " fill-rule="nonzero" fill="#ffffff" stroke="none" />
  <path d="M 224 417.5  C 227.08 417.5  229.5 419.92  229.5 423  C 229.5 426.08  227.08 428.5  224 428.5  C 220.92 428.5  218.5 426.08  218.5 423  C 218.5 419.92  220.92 417.5  224 417.5  Z " stroke-width="1" stroke="#797979" fill="none" />
  <path d="M 224 426  C 222.32 426  221 424.68  221 423  C 221 421.32  222.32 420  224 420  C 225.68 420  227 421.32  227 423  C 227 424.68  225.68 426  224 426  " fill-rule="nonzero" fill="#797979" stroke="none" />
</svg>