<?xml version="1.0" encoding="utf-8"?>
<svg version="1.1" xmlns:xlink="http://www.w3.org/1999/xlink" width="12px" height="12px" viewBox="371 -169  12 12" xmlns="http://www.w3.org/2000/svg">
  <path d="M 377 -169  C 380.36 -169  383 -166.36  383 -163  C 383 -159.64  380.36 -157  377 -157  C 373.64 -157  371 -159.64  371 -163  C 371 -166.36  373.64 -169  377 -169  Z " fill-rule="nonzero" fill="#ffffff" stroke="none" />
  <path d="M 377 -168.5  C 380.08 -168.5  382.5 -166.08  382.5 -163  C 382.5 -159.92  380.08 -157.5  377 -157.5  C 373.92 -157.5  371.5 -159.92  371.5 -163  C 371.5 -166.08  373.92 -168.5  377 -168.5  Z " stroke-width="1" stroke="#797979" fill="none" />
  <path d="M 377 -160  C 375.32 -160  374 -161.32  374 -163  C 374 -164.68  375.32 -166  377 -166  C 378.68 -166  380 -164.68  380 -163  C 380 -161.32  378.68 -160  377 -160  " fill-rule="nonzero" fill="#797979" stroke="none" />
</svg>