<?xml version="1.0" encoding="utf-8"?>
<svg version="1.1" xmlns:xlink="http://www.w3.org/1999/xlink" width="12px" height="12px" viewBox="371 -215  12 12" xmlns="http://www.w3.org/2000/svg">
  <path d="M 377 -215  C 380.36 -215  383 -212.36  383 -209  C 383 -205.64  380.36 -203  377 -203  C 373.64 -203  371 -205.64  371 -209  C 371 -212.36  373.64 -215  377 -215  Z " fill-rule="nonzero" fill="#ffffff" stroke="none" />
  <path d="M 377 -214.5  C 380.08 -214.5  382.5 -212.08  382.5 -209  C 382.5 -205.92  380.08 -203.5  377 -203.5  C 373.92 -203.5  371.5 -205.92  371.5 -209  C 371.5 -212.08  373.92 -214.5  377 -214.5  Z " stroke-width="1" stroke="#797979" fill="none" />
  <path d="M 377 -206  C 375.32 -206  374 -207.32  374 -209  C 374 -210.68  375.32 -212  377 -212  C 378.68 -212  380 -210.68  380 -209  C 380 -207.32  378.68 -206  377 -206  " fill-rule="nonzero" fill="#797979" stroke="none" />
</svg>