<?xml version="1.0" encoding="utf-8"?>
<svg version="1.1" xmlns:xlink="http://www.w3.org/1999/xlink" width="12px" height="12px" viewBox="299 -215  12 12" xmlns="http://www.w3.org/2000/svg">
  <path d="M 305 -215  C 308.36 -215  311 -212.36  311 -209  C 311 -205.64  308.36 -203  305 -203  C 301.64 -203  299 -205.64  299 -209  C 299 -212.36  301.64 -215  305 -215  Z " fill-rule="nonzero" fill="#f0f0f0" stroke="none" />
  <path d="M 305 -214.5  C 308.08 -214.5  310.5 -212.08  310.5 -209  C 310.5 -205.92  308.08 -203.5  305 -203.5  C 301.92 -203.5  299.5 -205.92  299.5 -209  C 299.5 -212.08  301.92 -214.5  305 -214.5  Z " stroke-width="1" stroke="#797979" fill="none" />
  <path d="M 305 -206  C 303.32 -206  302 -207.32  302 -209  C 302 -210.68  303.32 -212  305 -212  C 306.68 -212  308 -210.68  308 -209  C 308 -207.32  306.68 -206  305 -206  " fill-rule="nonzero" fill="#797979" stroke="none" />
</svg>