<?xml version="1.0" encoding="utf-8"?>
<svg version="1.1" xmlns:xlink="http://www.w3.org/1999/xlink" width="12px" height="12px" viewBox="220 363  12 12" xmlns="http://www.w3.org/2000/svg">
  <path d="M 226 363  C 229.36 363  232 365.64  232 369  C 232 372.36  229.36 375  226 375  C 222.64 375  220 372.36  220 369  C 220 365.64  222.64 363  226 363  Z " fill-rule="nonzero" fill="#ffffff" stroke="none" />
  <path d="M 226 363.5  C 229.08 363.5  231.5 365.92  231.5 369  C 231.5 372.08  229.08 374.5  226 374.5  C 222.92 374.5  220.5 372.08  220.5 369  C 220.5 365.92  222.92 363.5  226 363.5  Z " stroke-width="1" stroke="#797979" fill="none" />
  <path d="M 226 372  C 224.32 372  223 370.68  223 369  C 223 367.32  224.32 366  226 366  C 227.68 366  229 367.32  229 369  C 229 370.68  227.68 372  226 372  " fill-rule="nonzero" fill="#797979" stroke="none" />
</svg>