<?xml version="1.0" encoding="utf-8"?>
<svg version="1.1" xmlns:xlink="http://www.w3.org/1999/xlink" width="12px" height="12px" viewBox="292 409  12 12" xmlns="http://www.w3.org/2000/svg">
  <path d="M 298 409  C 301.36 409  304 411.64  304 415  C 304 418.36  301.36 421  298 421  C 294.64 421  292 418.36  292 415  C 292 411.64  294.64 409  298 409  Z " fill-rule="nonzero" fill="#f0f0f0" stroke="none" />
  <path d="M 298 409.5  C 301.08 409.5  303.5 411.92  303.5 415  C 303.5 418.08  301.08 420.5  298 420.5  C 294.92 420.5  292.5 418.08  292.5 415  C 292.5 411.92  294.92 409.5  298 409.5  Z " stroke-width="1" stroke="#797979" fill="none" />
  <path d="M 298 418  C 296.32 418  295 416.68  295 415  C 295 413.32  296.32 412  298 412  C 299.68 412  301 413.32  301 415  C 301 416.68  299.68 418  298 418  " fill-rule="nonzero" fill="#797979" stroke="none" />
</svg>