<?xml version="1.0" encoding="utf-8"?>
<svg version="1.1" xmlns:xlink="http://www.w3.org/1999/xlink" width="12px" height="12px" viewBox="309 438  12 12" xmlns="http://www.w3.org/2000/svg">
  <path d="M 315 438  C 318.36 438  321 440.64  321 444  C 321 447.36  318.36 450  315 450  C 311.64 450  309 447.36  309 444  C 309 440.64  311.64 438  315 438  Z " fill-rule="nonzero" fill="#ffffff" stroke="none" />
  <path d="M 315 438.5  C 318.08 438.5  320.5 440.92  320.5 444  C 320.5 447.08  318.08 449.5  315 449.5  C 311.92 449.5  309.5 447.08  309.5 444  C 309.5 440.92  311.92 438.5  315 438.5  Z " stroke-width="1" stroke="#797979" fill="none" />
  <path d="M 315 447  C 313.32 447  312 445.68  312 444  C 312 442.32  313.32 441  315 441  C 316.68 441  318 442.32  318 444  C 318 445.68  316.68 447  315 447  " fill-rule="nonzero" fill="#797979" stroke="none" />
</svg>